<?xml version="1.0" encoding="UTF-8"?>
<svg width="752pt" height="752pt" version="1.1" viewBox="0 0 752 752" xmlns="http://www.w3.org/2000/svg">
 <path d="m570.64 202.91c-53.043-53.512-128.34-53.988-193.7 0.47656-65.355-54.465-140.65-53.988-194.17-0.47656-53.516 53.516-53.988 132.6 0 193.7s88.559 80.508 123.61 115.08c34.57 34.57 71.039 78.613 71.039 78.613-0.003906 0 35.043-43.57 69.613-78.613 34.57-34.57 69.145-54.461 123.61-115.08 54.461-61.09 53.512-140.18 0-193.7zm-303.09 31.258c-10.891 3.3164-20.836 8.9961-29.363 17.523-9.9453 9.9453-17.523 21.785-21.312 34.57-0.94531 3.3164-3.7891 5.2109-7.1055 5.2109-0.94531 0-1.4219 0-2.3672-0.47266-3.7891-1.4219-6.1562-5.2109-4.7344-9.4727 4.7344-15.156 13.262-28.887 25.102-40.727 10.418-10.418 22.73-17.523 35.992-21.312 3.7891-0.94531 8.0508 0.94531 8.9961 5.2109 0.94922 4.2578-1.418 8.5195-5.207 9.4688z"/>
</svg>
