<?xml version="1.0" encoding="UTF-8"?>
<svg width="752pt" height="752pt" version="1.1" viewBox="0 0 752 752" xmlns="http://www.w3.org/2000/svg">
 <g>
  <path d="m279.8 213.21h-103.59v281.19h103.6zm-14.797 88.797h-59.199v-14.801h59.199zm0-29.598h-59.199v-14.801h59.199zm0-29.598h-59.199v-14.801h59.199z"/>
  <path d="m294.61 494.4h281.19v-281.19h-281.19zm73.996-177.59h177.59v14.801l-177.59-0.003907zm0 29.598h177.59v14.801h-177.59zm0 29.598h133.2v14.801h-133.2zm-59.199-118.39h11.84l0.73828-0.73828c1.4805-1.4805 2.2188-2.9609 2.2188-5.1797l0.003906-8.8789c0-8.1406 6.6602-14.801 14.801-14.801h14.801v14.801h-14.801v8.8789c0 5.1797-1.4805 9.6211-4.4414 13.32 2.9609 3.6992 4.4414 8.8789 4.4414 13.32v8.875h14.801v14.801h-14.801c-8.1406 0-14.801-6.6602-14.801-14.801v-8.8789c0-2.2188-0.73828-3.6992-2.2188-5.1797l-0.74219-0.73828h-11.84zm0 207.19h14.801v-8.8789c0-5.1797 1.4805-9.6211 4.4414-13.32-2.9609-3.6992-4.4414-8.8789-4.4414-13.32v-8.8789h-14.801v-14.801h14.801c8.1406 0 14.801 6.6602 14.801 14.801v8.8789c0 2.2188 0.73828 3.6992 2.2188 5.1797l0.73828 0.73828 11.84 0.003907v14.801h-11.84l-0.73828 0.73828c-1.4805 1.4805-2.2188 2.9609-2.2188 5.1797v8.8789c0 8.1406-6.6602 14.801-14.801 14.801h-14.801z"/>
  <path d="m501.8 198.41v-44.398h-303.39c-12.582 0-22.199 9.6172-22.199 22.199v22.199z"/>
  <path d="m176.21 509.2v66.598c0 12.578 9.6211 22.199 22.199 22.199h355.19c12.578 0 22.199-9.6211 22.199-22.199v-66.598zm50.316 63.637-12.578-8.1406 11.84-17.758-11.84-17.758 12.578-8.1406 17.758 26.641zm53.277-4.4375h-29.598v-14.801h29.598z"/>
  <path d="m516.6 198.41h59.199l-0.003906-22.199c0-12.578-9.6211-22.199-22.199-22.199h-37z"/>
 </g>
</svg>
