<?xml version="1.0" encoding="UTF-8"?>
<svg width="752pt" height="752pt" version="1.1" viewBox="0 0 752 752" xmlns="http://www.w3.org/2000/svg">
 <defs>
  <clipPath id="d">
   <path d="m139.21 475h473.58v36h-473.58z"/>
  </clipPath>
  <clipPath id="c">
   <path d="m139.21 206h198.79v262h-198.79z"/>
  </clipPath>
  <clipPath id="b">
   <path d="m139.21 154h473.58v45h-473.58z"/>
  </clipPath>
  <clipPath id="a">
   <path d="m345 206h267.79v262h-267.79z"/>
  </clipPath>
 </defs>
 <path d="m263.84 579.05h224.31v18.215h-224.31z"/>
 <g clip-path="url(#d)">
  <path d="m139.21 494.65c0 8.8359 7.1211 16.023 15.875 16.023h441.83c8.7539 0 15.875-7.1875 15.875-16.023v-19.512h-473.58z"/>
 </g>
 <path d="m328.31 518.43h95.383v52.852h-95.383z"/>
 <g clip-path="url(#c)">
  <path d="m337.74 206.7h-198.53v260.68h198.53zm-99.262 26.387c0-4.7617 3.8594-8.6211 8.6211-8.6211h47.223c4.7617 0 8.6211 3.8594 8.6211 8.6211v0.074219c0 4.7617-3.8594 8.6211-8.6211 8.6211h-47.223c-4.7617 0-8.6211-3.8594-8.6211-8.6211zm-81.66 0c0-4.7617 3.8594-8.6211 8.6211-8.6211h47.223c4.7617 0 8.6211 3.8594 8.6211 8.6211v0.074219c0 4.7617-3.8594 8.6211-8.6211 8.6211h-47.223c-4.7617 0-8.6211-3.8594-8.6211-8.6211zm0 69.277c0-4.7617 3.8594-8.6211 8.6211-8.6211h47.223c4.7617 0 8.6211 3.8594 8.6211 8.6211v0.074219c0 4.7617-3.8594 8.6211-8.6211 8.6211h-47.223c-4.7617 0-8.6211-3.8594-8.6211-8.6211zm0 69.273c0-4.7617 3.8594-8.6211 8.6211-8.6211h47.223c4.7617 0 8.6211 3.8594 8.6211 8.6211v0.074219c0 4.7617-3.8594 8.6211-8.6211 8.6211h-47.223c-4.7617 0-8.6211-3.8594-8.6211-8.6211zm0 34.641c0-4.7617 3.8594-8.6211 8.6211-8.6211h47.223c4.7617 0 8.6211 3.8594 8.6211 8.6211v0.074218c0 4.7617-3.8594 8.6211-8.6211 8.6211h-47.223c-4.7617 0-8.6211-3.8594-8.6211-8.6211zm124.63 34.711c0 4.7617-3.8594 8.6211-8.6211 8.6211h-107.39c-4.7617 0-8.6211-3.8594-8.6211-8.6211v-0.074219c0-4.7617 3.8594-8.6211 8.6211-8.6211h107.39c4.7617 0 8.6211 3.8594 8.6211 8.6211l0.003906 0.074219zm21.492-34.637c0 4.7617-3.8594 8.6211-8.6211 8.6211h-47.223c-4.7617 0-8.6211-3.8594-8.6211-8.6211v-0.074218c0-4.7617 3.8594-8.6211 8.6211-8.6211h47.223c4.7617 0 8.6211 3.8594 8.6211 8.6211zm0-34.637c0 4.7617-3.8594 8.6211-8.6211 8.6211h-47.223c-4.7617 0-8.6211-3.8594-8.6211-8.6211l-0.003906-0.078126c0-4.7617 3.8594-8.6211 8.6211-8.6211h47.223c4.7617 0 8.6211 3.8594 8.6211 8.6211zm17.188-34.641c0 4.7617-3.8594 8.6211-8.6211 8.6211l-146.07 0.003906c-4.7617 0-8.6211-3.8594-8.6211-8.6211v-0.074219c0-4.7617 3.8594-8.6211 8.6211-8.6211h146.07c4.7617 0 8.6211 3.8594 8.6211 8.6211l0.003906 0.070312zm-81.652-34.637v-0.074219c0-4.7617 3.8594-8.6211 8.6211-8.6211h47.223c4.7617 0 8.6211 3.8594 8.6211 8.6211v0.074219c0 4.7617-3.8594 8.6211-8.6211 8.6211h-47.223c-4.7617 0-8.6211-3.8594-8.6211-8.6211zm81.652-34.637c0 4.7617-3.8594 8.6211-8.6211 8.6211h-146.07c-4.7617 0-8.6211-3.8594-8.6211-8.6211v-0.074219c0-4.7617 3.8594-8.6211 8.6211-8.6211h146.07c4.7617 0 8.6211 3.8594 8.6211 8.6211l0.003906 0.074219z"/>
 </g>
 <g clip-path="url(#b)">
  <path d="m596.92 154.74h-441.83c-8.7539 0-15.875 7.1875-15.875 16.023v28.168h473.58v-28.168c0-8.8359-7.1211-16.023-15.875-16.023zm-74.793 30.754c-4.7461 0-8.5938-3.8789-8.5938-8.6602s3.8477-8.6602 8.5938-8.6602 8.5938 3.8789 8.5938 8.6602c0 4.7852-3.8477 8.6602-8.5938 8.6602zm34.379 0c-4.7461 0-8.5938-3.8789-8.5938-8.6602s3.8477-8.6602 8.5938-8.6602 8.5938 3.8789 8.5938 8.6602c0.003906 4.7852-3.8438 8.6602-8.5938 8.6602zm34.383 0c-4.7461 0-8.5938-3.8789-8.5938-8.6602s3.8477-8.6602 8.5938-8.6602c4.7461 0 8.5938 3.8789 8.5938 8.6602 0.003906 4.7852-3.8477 8.6602-8.5938 8.6602z"/>
 </g>
 <g clip-path="url(#a)">
  <path d="m345.5 467.38h267.29v-260.68h-267.29zm190.7-218.95c-1.2773-1.7188-0.92188-4.1523 0.79688-5.4336 1.7188-1.2773 4.1484-0.92578 5.4336 0.79687l51.574 69.277c1.0234 1.375 1.0234 3.2578 0 4.6367l-51.574 69.277c-0.76172 1.0234-1.9336 1.5625-3.1172 1.5625-0.80469 0-1.6172-0.25-2.3164-0.76953-1.7188-1.2812-2.0742-3.7109-0.79688-5.4336l49.848-66.957zm-90.695 134.69 60.168-138.55c0.85547-1.9648 3.1406-2.8672 5.1094-2.0156 1.9648 0.85547 2.8672 3.1406 2.0156 5.1094l-60.168 138.55c-0.63281 1.4609-2.0625 2.3359-3.5625 2.3359-0.51562 0-1.0391-0.10156-1.5469-0.32031-1.9688-0.85547-2.8711-3.1445-2.0156-5.1094zm-81.211-70.047 51.574-69.277c1.2812-1.7188 3.7109-2.0742 5.4336-0.79687 1.7188 1.2812 2.0742 3.7109 0.79297 5.4336l-49.848 66.957 49.848 66.957c1.2812 1.7188 0.92578 4.1523-0.79297 5.4336-0.69531 0.51562-1.5078 0.76953-2.3164 0.76953-1.1836 0-2.3555-0.53906-3.1172-1.5625l-51.574-69.277c-1.0234-1.375-1.0234-3.2617 0-4.6367z"/>
 </g>
</svg>
